<?xml version="1.0" encoding="utf-8"?>
<!-- Generator: Adobe Illustrator 19.2.1, SVG Export Plug-In . SVG Version: 6.00 Build 0)  -->
<svg version="1.1" id="layer" xmlns="http://www.w3.org/2000/svg" xmlns:xlink="http://www.w3.org/1999/xlink" x="0px" y="0px"
	 viewBox="0 0 652 652" style="enable-background:new 0 0 652 652;" xml:space="preserve">
<style type="text/css">
	.st0{fill:#E57000;}
</style>
<path d="M73.3,319.5l-34.5-38c1.3-1.3,2.9-2.4,4.7-3.2c1.8-0.8,3.7-1.2,5.7-1.2c2.2,0,4.2,0.4,6,1.3c1.8,0.8,3.4,2,4.7,3.5
	l13.4,14.7l13.3-14.7c1.4-1.5,3-2.6,4.8-3.5c1.8-0.8,3.8-1.3,5.9-1.3c2,0,4,0.4,5.7,1.2c1.8,0.8,3.3,1.8,4.7,3.2L73.3,319.5
	 M73.3,325.3l-34.5,38c1.3,1.3,2.9,2.4,4.7,3.2c1.8,0.8,3.7,1.2,5.7,1.2c2.1,0,4.1-0.4,6-1.3c1.8-0.8,3.4-2,4.8-3.5l13.3-14.7
	l13.4,14.7c1.3,1.5,2.9,2.6,4.7,3.5c1.8,0.8,3.8,1.3,6,1.3c2,0,4-0.4,5.7-1.2c1.8-0.8,3.3-1.8,4.7-3.2L73.3,325.3 M179.4,324.3
	c1.7-0.2,2.7-0.8,3.1-1.8c0.4-1.1,0.5-1.7,0.4-1.8v-9c-0.1-1.7-0.7-2.7-1.8-3.1c-1-0.4-1.6-0.5-1.8-0.4h-25.3v16.2H179.4z
	 M193.2,297.9c2.7,2.7,4.2,6.2,4.3,10.3v14.4c-0.1,4.1-1.5,7.5-4.3,10.2c-2.7,2.7-6.2,4.1-10.3,4.2h-28.9c-0.1,4.1-1.5,7.5-4.2,10.2
	c-2.7,2.7-6.1,4.1-10.1,4.2V299c0-1.5,0.6-2.8,1.6-3.8c1-1,2.3-1.6,3.8-1.6H183C187.1,293.7,190.5,295.1,193.2,297.9z M245.4,320.7
	c1.7-0.1,2.8-0.7,3.2-1.8c0.4-1,0.5-1.6,0.5-1.8v-5.4c-0.2-1.7-0.8-2.7-1.8-3.1c-1.1-0.4-1.7-0.5-1.8-0.4h-25.2v12.5H245.4z
	 M260.1,328.1c-2.2,2.6-4.9,4.2-8.3,5l11.6,16.6c-1,0.5-2.1,0.9-3.2,1.2c-1.1,0.3-2.3,0.4-3.5,0.4c-2.5,0-4.7-0.6-6.8-1.7
	c-2-1.1-3.7-2.6-5-4.5l-8.3-11.9h-16.4v3.6c-0.1,4.1-1.5,7.5-4.2,10.2c-2.7,2.7-6.1,4.1-10.2,4.2V299c0-1.5,0.6-2.8,1.6-3.8
	c1-1,2.3-1.6,3.8-1.6H249c4.1,0.1,7.5,1.5,10.2,4.3c2.7,2.7,4.1,6.2,4.2,10.3v10.8C263.4,322.5,262.3,325.6,260.1,328.1z
	 M314.9,311.7c-0.2-1.7-0.8-2.7-1.8-3.1c-1.1-0.4-1.7-0.5-1.8-0.4h-21.5c-1.7,0.1-2.8,0.7-3.2,1.8c-0.4,1-0.5,1.6-0.5,1.8v21.6
	c0.2,1.7,0.8,2.8,1.8,3.2c1.1,0.4,1.7,0.5,1.8,0.5h21.5c1.7-0.2,2.8-0.8,3.2-1.8c0.4-1.1,0.5-1.7,0.5-1.8V311.7z M325.1,297.9
	c2.7,2.7,4.1,6.2,4.2,10.3v28.8c-0.1,4.1-1.5,7.5-4.2,10.2c-2.7,2.7-6.1,4.1-10.2,4.2h-28.8c-4.1-0.1-7.5-1.5-10.2-4.2
	c-2.7-2.7-4.1-6.1-4.2-10.2v-28.8c0.1-4.1,1.5-7.5,4.2-10.3c2.7-2.7,6.1-4.2,10.2-4.3h28.8C319,293.7,322.4,295.1,325.1,297.9z
	 M477.1,293.6h-9.1c-3,0-5.6,0.8-7.9,2.4c-2.3,1.6-4.1,3.7-5.3,6.2l0.1-0.2l-8.5,18.6l-8.4-18.6v0.2c-1.2-2.6-2.9-4.7-5.2-6.2
	c-2.3-1.6-5-2.4-8-2.4h-9c-1.6,0-2.9,0.6-3.9,1.6c-1,1-1.5,2.3-1.6,3.8v52.3c4.1-0.1,7.5-1.5,10.2-4.2c2.7-2.7,4.1-6.1,4.2-10.2
	v-27.6c0-0.4,0.1-0.7,0.3-0.9c0.2-0.2,0.5-0.3,0.9-0.3c0.2,0,0.4,0.1,0.6,0.2c0.2,0.1,0.4,0.3,0.4,0.5l16,35.3
	c0.3,0.6,0.8,1.1,1.3,1.5c0.6,0.4,1.2,0.6,2,0.6c0.7,0,1.4-0.2,1.9-0.6c0.6-0.4,1-0.9,1.4-1.5l16-35.4c0.1-0.2,0.3-0.3,0.5-0.5
	c0.2-0.1,0.4-0.2,0.7-0.2c0.3,0,0.6,0.1,0.8,0.3c0.2,0.2,0.3,0.5,0.3,0.9v27.6c0.1,4.1,1.5,7.5,4.2,10.2c2.7,2.7,6.1,4.1,10.2,4.2
	V299c0-1.5-0.6-2.8-1.6-3.8C479.9,294.2,478.7,293.6,477.1,293.6z M534,311.7c-0.2-1.7-0.8-2.7-1.8-3.1c-1.1-0.4-1.7-0.5-1.8-0.4
	h-21.5c-1.7,0.1-2.8,0.7-3.2,1.8c-0.4,1-0.5,1.6-0.5,1.8v21.6c0.2,1.7,0.8,2.8,1.8,3.2c1.1,0.4,1.7,0.5,1.8,0.5h21.5
	c1.7-0.2,2.8-0.8,3.2-1.8c0.4-1.1,0.5-1.7,0.5-1.8V311.7z M544.2,297.9c2.7,2.7,4.1,6.2,4.2,10.3v28.8c-0.1,4.1-1.5,7.5-4.2,10.2
	c-2.7,2.7-6.1,4.1-10.2,4.2h-28.8c-4.1-0.1-7.5-1.5-10.2-4.2c-2.7-2.7-4.1-6.1-4.2-10.2v-28.8c0.1-4.1,1.5-7.5,4.2-10.3
	c2.7-2.7,6.1-4.2,10.2-4.3H534C538.1,293.7,541.5,295.1,544.2,297.9z"/>
<path class="st0" d="M70.4,322.4l-26,28.6c-1.5,1.6-3.2,2.9-5.2,3.8c-2,0.9-4.2,1.4-6.6,1.4c-2.2,0-4.3-0.4-6.3-1.3
	c-1.9-0.8-3.7-2-5.1-3.5l26.4-29l-26.4-29c1.5-1.5,3.2-2.6,5.1-3.5c2-0.8,4-1.3,6.3-1.3c2.3,0,4.5,0.5,6.5,1.4
	c2,0.9,3.8,2.2,5.3,3.8L70.4,322.4 M76.2,322.4l26,28.6c1.5,1.6,3.2,2.9,5.2,3.8c2,0.9,4.2,1.4,6.5,1.4c2.2,0,4.3-0.4,6.3-1.3
	c2-0.8,3.7-2,5.1-3.5l-26.4-29l26.4-29c-1.5-1.5-3.2-2.6-5.1-3.5c-1.9-0.8-4-1.3-6.3-1.3c-2.3,0-4.5,0.5-6.5,1.4
	c-2,0.9-3.8,2.2-5.3,3.8L76.2,322.4 M402.1,297.7c-1.2-1.3-2.7-2.2-4.4-2.9c-1.7-0.7-3.5-1.1-5.4-1.1c-2,0-3.9,0.4-5.6,1.2
	c-1.7,0.8-3.2,1.9-4.4,3.2l-12.5,13.7l-12.5-13.7c-1.3-1.4-2.8-2.5-4.4-3.3c-1.7-0.8-3.5-1.2-5.5-1.2c-1.9,0-3.7,0.4-5.4,1.1
	c-1.7,0.7-3.1,1.7-4.4,2.9l22.5,24.7l-22.5,24.7c1.3,1.3,2.7,2.3,4.4,3c1.7,0.7,3.5,1.1,5.4,1.1c2,0,3.9-0.4,5.6-1.2
	c1.7-0.8,3.2-1.9,4.5-3.2l12.5-13.7l12.5,13.7c1.2,1.4,2.7,2.5,4.4,3.2c1.7,0.8,3.6,1.2,5.6,1.2c1.9,0,3.7-0.4,5.4-1.1
	c1.7-0.7,3.1-1.7,4.4-3l-22.5-24.7L402.1,297.7z M621.2,297.7c-1.2-1.3-2.7-2.2-4.4-2.9c-1.7-0.7-3.5-1.1-5.4-1.1
	c-2,0-3.9,0.4-5.6,1.2c-1.7,0.8-3.2,1.9-4.4,3.2l-12.5,13.7l-12.5-13.7c-1.3-1.4-2.8-2.5-4.4-3.3c-1.7-0.8-3.5-1.2-5.5-1.2
	c-1.9,0-3.7,0.4-5.4,1.1c-1.7,0.7-3.1,1.7-4.4,2.9l22.5,24.7l-22.5,24.7c1.3,1.3,2.7,2.3,4.4,3c1.7,0.7,3.5,1.1,5.4,1.1
	c2,0,3.9-0.4,5.6-1.2c1.7-0.8,3.2-1.9,4.5-3.2l12.5-13.7l12.5,13.7c1.2,1.4,2.7,2.5,4.4,3.2c1.7,0.8,3.6,1.2,5.6,1.2
	c1.9,0,3.7-0.4,5.4-1.1c1.7-0.7,3.1-1.7,4.4-3l-22.5-24.7L621.2,297.7z"/>
</svg>
